<?xml version="1.0" encoding="UTF-8" standalone="no"?>
<svg
   xmlns:dc="http://purl.org/dc/elements/1.1/"
   xmlns:cc="http://creativecommons.org/ns#"
   xmlns:rdf="http://www.w3.org/1999/02/22-rdf-syntax-ns#"
   xmlns:svg="http://www.w3.org/2000/svg"
   xmlns="http://www.w3.org/2000/svg"
   xmlns:sodipodi="http://sodipodi.sourceforge.net/DTD/sodipodi-0.dtd"
   xmlns:inkscape="http://www.inkscape.org/namespaces/inkscape"
   version="1.1"
   width="7.3558335cm"
   height="7.030714cm"
   viewBox="0 0 28959.995 27680.003"
   id="svg21866"
   sodipodi:docname="activation.sch.svg"
   inkscape:version="0.92.2 (5c3e80d, 2017-08-06)">
  <metadata
     id="metadata21872">
    <rdf:RDF>
      <cc:Work
         rdf:about="">
        <dc:format>image/svg+xml</dc:format>
        <dc:type
           rdf:resource="http://purl.org/dc/dcmitype/StillImage" />
        <dc:title>SVG Picture created as activation.sch.svg date 2018/12/10 22:32:17 </dc:title>
      </cc:Work>
    </rdf:RDF>
  </metadata>
  <defs
     id="defs21870" />
  <sodipodi:namedview
     pagecolor="#ffffff"
     bordercolor="#666666"
     borderopacity="1"
     objecttolerance="10"
     gridtolerance="10"
     guidetolerance="10"
     inkscape:pageopacity="0"
     inkscape:pageshadow="2"
     inkscape:window-width="1916"
     inkscape:window-height="1041"
     id="namedview21868"
     showgrid="false"
     fit-margin-top="0"
     fit-margin-left="0"
     fit-margin-right="0"
     fit-margin-bottom="0"
     inkscape:zoom="0.28685273"
     inkscape:cx="-390.01536"
     inkscape:cy="-31.199925"
     inkscape:window-x="0"
     inkscape:window-y="18"
     inkscape:window-maximized="0"
     inkscape:current-layer="svg21866" />
  <title
     id="title20952">SVG Picture created as activation.sch.svg date 2018/12/10 22:32:17 </title>
  <desc
     id="desc20954">Picture generated by Eeschema-SVG </desc>
  <g
     style="fill:#000000;fill-opacity:1;stroke:#000000;stroke-linecap:round;stroke-linejoin:round;stroke-opacity:1"
     id="g20956"
     transform="translate(-19020.001,-10410)" />
  <g
     style="fill:#000000;fill-opacity:0;stroke:#000000;stroke-width:-10;stroke-linecap:round;stroke-linejoin:round;stroke-opacity:1"
     id="g20958"
     transform="translate(-19020.001,-10410)" />
  <g
     style="fill:#840000;fill-opacity:0;stroke:#840000;stroke-width:-10;stroke-linecap:round;stroke-linejoin:round;stroke-opacity:1"
     id="g20960"
     transform="translate(-19020.001,-10410)" />
  <g
     style="fill:#840000;fill-opacity:0;stroke:#840000;stroke-width:100;stroke-linecap:round;stroke-linejoin:round;stroke-opacity:1"
     id="g20962"
     transform="translate(-19020.001,-10410)" />
  <g
     style="fill:#840000;fill-opacity:0;stroke:#840000;stroke-width:100;stroke-linecap:round;stroke-linejoin:round;stroke-opacity:1"
     id="g20968"
     transform="translate(-19020.001,-10410)" />
  <g
     style="fill:#840000;fill-opacity:0;stroke:#840000;stroke-width:100;stroke-linecap:round;stroke-linejoin:round;stroke-opacity:1"
     id="g20974"
     transform="translate(-19020.001,-10410)" />
  <g
     style="fill:#840000;fill-opacity:0;stroke:#840000;stroke-width:100;stroke-linecap:round;stroke-linejoin:round;stroke-opacity:1"
     id="g20980"
     transform="translate(-19020.001,-10410)" />
  <g
     style="fill:#840000;fill-opacity:0;stroke:#840000;stroke-width:100;stroke-linecap:round;stroke-linejoin:round;stroke-opacity:1"
     id="g20986"
     transform="translate(-19020.001,-10410)" />
  <g
     style="fill:#840000;fill-opacity:0;stroke:#840000;stroke-width:100;stroke-linecap:round;stroke-linejoin:round;stroke-opacity:1"
     id="g20992"
     transform="translate(-19020.001,-10410)" />
  <g
     style="fill:#840000;fill-opacity:0;stroke:#840000;stroke-width:100;stroke-linecap:round;stroke-linejoin:round;stroke-opacity:1"
     id="g20998"
     transform="translate(-19020.001,-10410)" />
  <g
     style="fill:#840000;fill-opacity:0;stroke:#840000;stroke-width:100;stroke-linecap:round;stroke-linejoin:round;stroke-opacity:1"
     id="g21004"
     transform="translate(-19020.001,-10410)" />
  <g
     style="fill:#840000;fill-opacity:0;stroke:#840000;stroke-width:100;stroke-linecap:round;stroke-linejoin:round;stroke-opacity:1"
     id="g21010"
     transform="translate(-19020.001,-10410)" />
  <g
     style="fill:#840000;fill-opacity:0;stroke:#840000;stroke-width:100;stroke-linecap:round;stroke-linejoin:round;stroke-opacity:1"
     id="g21018"
     transform="translate(-19020.001,-10410)" />
  <g
     style="fill:#840000;fill-opacity:0;stroke:#840000;stroke-width:100;stroke-linecap:round;stroke-linejoin:round;stroke-opacity:1"
     id="g21024"
     transform="translate(-19020.001,-10410)" />
  <g
     style="fill:#840000;fill-opacity:0;stroke:#840000;stroke-width:100;stroke-linecap:round;stroke-linejoin:round;stroke-opacity:1"
     id="g21030"
     transform="translate(-19020.001,-10410)" />
  <g
     style="fill:#840000;fill-opacity:0;stroke:#840000;stroke-width:100;stroke-linecap:round;stroke-linejoin:round;stroke-opacity:1"
     id="g21038"
     transform="translate(-19020.001,-10410)" />
  <g
     style="fill:#840000;fill-opacity:0;stroke:#840000;stroke-width:100;stroke-linecap:round;stroke-linejoin:round;stroke-opacity:1"
     id="g21044"
     transform="translate(-19020.001,-10410)" />
  <g
     style="fill:#840000;fill-opacity:0;stroke:#840000;stroke-width:100;stroke-linecap:round;stroke-linejoin:round;stroke-opacity:1"
     id="g21050"
     transform="translate(-19020.001,-10410)" />
  <g
     style="fill:#840000;fill-opacity:0;stroke:#840000;stroke-width:100;stroke-linecap:round;stroke-linejoin:round;stroke-opacity:1"
     id="g21056"
     transform="translate(-19020.001,-10410)" />
  <g
     style="fill:#840000;fill-opacity:0;stroke:#840000;stroke-width:100;stroke-linecap:round;stroke-linejoin:round;stroke-opacity:1"
     id="g21062"
     transform="translate(-19020.001,-10410)" />
  <g
     style="fill:#840000;fill-opacity:0;stroke:#840000;stroke-width:100;stroke-linecap:round;stroke-linejoin:round;stroke-opacity:1"
     id="g21068"
     transform="translate(-19020.001,-10410)" />
  <g
     style="fill:#840000;fill-opacity:0;stroke:#840000;stroke-width:100;stroke-linecap:round;stroke-linejoin:round;stroke-opacity:1"
     id="g21074"
     transform="translate(-19020.001,-10410)" />
  <g
     style="fill:#840000;fill-opacity:0;stroke:#840000;stroke-width:100;stroke-linecap:round;stroke-linejoin:round;stroke-opacity:1"
     id="g21080"
     transform="translate(-19020.001,-10410)" />
  <g
     style="fill:#840000;fill-opacity:0;stroke:#840000;stroke-width:100;stroke-linecap:round;stroke-linejoin:round;stroke-opacity:1"
     id="g21088"
     transform="translate(-19020.001,-10410)" />
  <g
     style="fill:#840000;fill-opacity:0;stroke:#840000;stroke-width:100;stroke-linecap:round;stroke-linejoin:round;stroke-opacity:1"
     id="g21094"
     transform="translate(-19020.001,-10410)" />
  <g
     style="fill:#840000;fill-opacity:0;stroke:#840000;stroke-width:100;stroke-linecap:round;stroke-linejoin:round;stroke-opacity:1"
     id="g21100"
     transform="translate(-19020.001,-10410)" />
  <g
     style="fill:#840000;fill-opacity:0;stroke:#840000;stroke-width:100;stroke-linecap:round;stroke-linejoin:round;stroke-opacity:1"
     id="g21108"
     transform="translate(-19020.001,-10410)" />
  <g
     style="fill:#840000;fill-opacity:0;stroke:#840000;stroke-width:100;stroke-linecap:round;stroke-linejoin:round;stroke-opacity:1"
     id="g21114"
     transform="translate(-19020.001,-10410)" />
  <g
     style="fill:#840000;fill-opacity:0;stroke:#840000;stroke-width:100;stroke-linecap:round;stroke-linejoin:round;stroke-opacity:1"
     id="g21120"
     transform="translate(-19020.001,-10410)" />
  <g
     style="fill:#840000;fill-opacity:0;stroke:#840000;stroke-width:100;stroke-linecap:round;stroke-linejoin:round;stroke-opacity:1"
     id="g21126"
     transform="translate(-19020.001,-10410)" />
  <g
     style="fill:#840000;fill-opacity:0;stroke:#840000;stroke-width:100;stroke-linecap:round;stroke-linejoin:round;stroke-opacity:1"
     id="g21132"
     transform="translate(-19020.001,-10410)" />
  <g
     style="fill:#840000;fill-opacity:0;stroke:#840000;stroke-width:100;stroke-linecap:round;stroke-linejoin:round;stroke-opacity:1"
     id="g21138"
     transform="translate(-19020.001,-10410)" />
  <g
     style="fill:#840000;fill-opacity:0;stroke:#840000;stroke-width:100;stroke-linecap:round;stroke-linejoin:round;stroke-opacity:1"
     id="g21146"
     transform="translate(-19020.001,-10410)" />
  <g
     style="fill:#840000;fill-opacity:0;stroke:#840000;stroke-width:100;stroke-linecap:round;stroke-linejoin:round;stroke-opacity:1"
     id="g21152"
     transform="translate(-19020.001,-10410)" />
  <g
     style="fill:#840000;fill-opacity:0;stroke:#840000;stroke-width:100;stroke-linecap:round;stroke-linejoin:round;stroke-opacity:1"
     id="g21158"
     transform="translate(-19020.001,-10410)" />
  <g
     style="fill:#840000;fill-opacity:0;stroke:#840000;stroke-width:100;stroke-linecap:round;stroke-linejoin:round;stroke-opacity:1"
     id="g21164"
     transform="translate(-19020.001,-10410)" />
  <g
     style="fill:#840000;fill-opacity:0;stroke:#840000;stroke-width:100;stroke-linecap:round;stroke-linejoin:round;stroke-opacity:1"
     id="g21170"
     transform="translate(-19020.001,-10410)" />
  <g
     style="fill:#840000;fill-opacity:0;stroke:#840000;stroke-width:100;stroke-linecap:round;stroke-linejoin:round;stroke-opacity:1"
     id="g21176"
     transform="translate(-19020.001,-10410)" />
  <g
     style="fill:#840000;fill-opacity:0;stroke:#840000;stroke-width:100;stroke-linecap:round;stroke-linejoin:round;stroke-opacity:1"
     id="g21182"
     transform="translate(-19020.001,-10410)" />
  <g
     style="fill:#840000;fill-opacity:0;stroke:#840000;stroke-width:100;stroke-linecap:round;stroke-linejoin:round;stroke-opacity:1"
     id="g21190"
     transform="translate(-19020.001,-10410)" />
  <g
     style="fill:#840000;fill-opacity:0;stroke:#840000;stroke-width:100;stroke-linecap:round;stroke-linejoin:round;stroke-opacity:1"
     id="g21196"
     transform="translate(-19020.001,-10410)" />
  <g
     style="fill:#840000;fill-opacity:0;stroke:#840000;stroke-width:100;stroke-linecap:round;stroke-linejoin:round;stroke-opacity:1"
     id="g21202"
     transform="translate(-19020.001,-10410)" />
  <g
     style="fill:#840000;fill-opacity:0;stroke:#840000;stroke-width:100;stroke-linecap:round;stroke-linejoin:round;stroke-opacity:1"
     id="g21208"
     transform="translate(-19020.001,-10410)" />
  <g
     style="fill:#840000;fill-opacity:0;stroke:#840000;stroke-width:100;stroke-linecap:round;stroke-linejoin:round;stroke-opacity:1"
     id="g21228"
     transform="translate(-19020.001,-10410)" />
  <g
     style="fill:#840000;fill-opacity:0;stroke:#840000;stroke-width:100;stroke-linecap:round;stroke-linejoin:round;stroke-opacity:1"
     id="g21234"
     transform="translate(-19020.001,-10410)" />
  <g
     style="fill:#840000;fill-opacity:0;stroke:#840000;stroke-width:100;stroke-linecap:round;stroke-linejoin:round;stroke-opacity:1"
     id="g21306"
     transform="translate(-19020.001,-10410)" />
  <g
     style="fill:#840000;fill-opacity:0;stroke:#840000;stroke-width:100;stroke-linecap:round;stroke-linejoin:round;stroke-opacity:1"
     id="g21312"
     transform="translate(-19020.001,-10410)" />
  <g
     style="fill:#840000;fill-opacity:0;stroke:#840000;stroke-width:100;stroke-linecap:round;stroke-linejoin:round;stroke-opacity:1"
     id="g21328"
     transform="translate(-19020.001,-10410)" />
  <g
     style="fill:#840000;fill-opacity:0;stroke:#840000;stroke-width:100;stroke-linecap:round;stroke-linejoin:round;stroke-opacity:1"
     id="g21354"
     transform="translate(-19020.001,-10410)" />
  <g
     style="fill:#840000;fill-opacity:0;stroke:#840000;stroke-width:100;stroke-linecap:round;stroke-linejoin:round;stroke-opacity:1"
     id="g21378"
     transform="translate(-19020.001,-10410)" />
  <g
     style="fill:#840000;fill-opacity:0;stroke:#840000;stroke-width:100;stroke-linecap:round;stroke-linejoin:round;stroke-opacity:1"
     id="g21384"
     transform="translate(-19020.001,-10410)" />
  <g
     style="fill:#840000;fill-opacity:0;stroke:#840000;stroke-width:100;stroke-linecap:round;stroke-linejoin:round;stroke-opacity:1"
     id="g21408"
     transform="translate(-19020.001,-10410)" />
  <g
     style="fill:#840000;fill-opacity:0;stroke:#840000;stroke-width:100;stroke-linecap:round;stroke-linejoin:round;stroke-opacity:1"
     id="g21472"
     transform="translate(-19020.001,-10410)" />
  <g
     style="fill:#840000;fill-opacity:0;stroke:#840000;stroke-width:100;stroke-linecap:round;stroke-linejoin:round;stroke-opacity:1"
     id="g21478"
     transform="translate(-19020.001,-10410)" />
  <g
     style="fill:#840000;fill-opacity:0;stroke:#840000;stroke-width:100;stroke-linecap:round;stroke-linejoin:round;stroke-opacity:1"
     id="g21502"
     transform="translate(-19020.001,-10410)" />
  <g
     style="fill:#840000;fill-opacity:0;stroke:#840000;stroke-width:100;stroke-linecap:round;stroke-linejoin:round;stroke-opacity:1"
     id="g21508"
     transform="translate(-19020.001,-10410)" />
  <g
     style="fill:#008400;fill-opacity:0;stroke:#008400;stroke-width:60;stroke-linecap:round;stroke-linejoin:round;stroke-opacity:1"
     id="g21520"
     transform="translate(-19020.001,-10410)">
    <path
       d="M 36000,24000 H 35000"
       id="path21514"
       inkscape:connector-curvature="0" />
    <path
       d="m 21500,24000 h 3500"
       id="path21516"
       inkscape:connector-curvature="0" />
    <path
       d="m 43000,24000 h 2500"
       id="path21518"
       inkscape:connector-curvature="0" />
  </g>
  <g
     style="fill:#840000;fill-opacity:0;stroke:#840000;stroke-width:60;stroke-linecap:round;stroke-linejoin:round;stroke-opacity:1"
     id="g21530"
     transform="translate(-19020.001,-10410)">
    <path
       d="m 46260,37770 v -310 l -30,-60 -60,-30 h -110 l -60,30"
       id="path21522"
       inkscape:connector-curvature="0" />
    <path
       d="m 46260,37740 -60,30 h -140 l -60,-30 -30,-50 v -60 l 30,-60 60,-30 h 140 l 60,-30"
       id="path21524"
       inkscape:connector-curvature="0" />
    <path
       d="m 46400,37830 h 460"
       id="path21526"
       inkscape:connector-curvature="0" />
    <path
       d="m 47090,37770 -60,-30 -30,-30 -30,-50 v -170 l 30,-60 30,-30 60,-30 h 80 l 60,30 30,30 30,60 v 170 l -30,50 -30,30 -60,30 h -80"
       id="path21528"
       inkscape:connector-curvature="0" />
  </g>
  <g
     style="fill:#840000;fill-opacity:0;stroke:#840000;stroke-width:100;stroke-linecap:round;stroke-linejoin:round;stroke-opacity:1"
     id="g21534"
     transform="translate(-19020.001,-10410)">
    <polyline
       fill="none;"
       points="45500,37500 45800,38040 47630,38040 47930,37500 47630,36960 45800,36960 45500,37500 "
       id="polyline21532" />
  </g>
  <g
     style="fill:#840000;fill-opacity:0;stroke:#840000;stroke-width:60;stroke-linecap:round;stroke-linejoin:round;stroke-opacity:1"
     id="g21546"
     transform="translate(-19020.001,-10410)">
    <path
       d="m 20250,37770 v -310 l -30,-60 -60,-30 h -110 l -60,30"
       id="path21536"
       inkscape:connector-curvature="0" />
    <path
       d="m 20250,37740 -60,30 h -140 l -60,-30 -30,-50 v -60 l 30,-60 60,-30 h 140 l 60,-30"
       id="path21538"
       inkscape:connector-curvature="0" />
    <path
       d="m 20390,37830 h 460"
       id="path21540"
       inkscape:connector-curvature="0" />
    <path
       d="m 20990,37770 v -400"
       id="path21542"
       inkscape:connector-curvature="0" />
    <path
       d="m 20990,37170 -30,30 30,30 30,-30 -30,-30 v 60"
       id="path21544"
       inkscape:connector-curvature="0" />
  </g>
  <g
     style="fill:#840000;fill-opacity:0;stroke:#840000;stroke-width:100;stroke-linecap:round;stroke-linejoin:round;stroke-opacity:1"
     id="g21550"
     transform="translate(-19020.001,-10410)">
    <polyline
       fill="none;"
       points="21500,37500 21200,36960 19620,36960 19320,37500 19620,38040 21200,38040 21500,37500 "
       id="polyline21548" />
  </g>
  <g
     style="fill:#840000;fill-opacity:0;stroke:#840000;stroke-width:60;stroke-linecap:round;stroke-linejoin:round;stroke-opacity:1"
     id="g21560"
     transform="translate(-19020.001,-10410)">
    <path
       d="m 46260,24270 v -600"
       id="path21552"
       inkscape:connector-curvature="0" />
    <path
       d="m 46260,24240 -60,30 h -110 l -60,-30 -30,-30 -30,-50 v -170 l 30,-60 30,-30 60,-30 h 110 l 60,30"
       id="path21554"
       inkscape:connector-curvature="0" />
    <path
       d="m 46400,24330 h 460"
       id="path21556"
       inkscape:connector-curvature="0" />
    <path
       d="m 47090,24270 -60,-30 -30,-30 -30,-50 v -170 l 30,-60 30,-30 60,-30 h 80 l 60,30 30,30 30,60 v 170 l -30,50 -30,30 -60,30 h -80"
       id="path21558"
       inkscape:connector-curvature="0" />
  </g>
  <g
     style="fill:#840000;fill-opacity:0;stroke:#840000;stroke-width:100;stroke-linecap:round;stroke-linejoin:round;stroke-opacity:1"
     id="g21564"
     transform="translate(-19020.001,-10410)">
    <polyline
       fill="none;"
       points="45500,24000 45800,24540 47630,24540 47930,24000 47630,23460 45800,23460 45500,24000 "
       id="polyline21562" />
  </g>
  <g
     style="fill:#840000;fill-opacity:0;stroke:#840000;stroke-width:60;stroke-linecap:round;stroke-linejoin:round;stroke-opacity:1"
     id="g21576"
     transform="translate(-19020.001,-10410)">
    <path
       d="m 20250,24270 v -600"
       id="path21566"
       inkscape:connector-curvature="0" />
    <path
       d="m 20250,24240 -60,30 h -110 l -60,-30 -30,-30 -30,-50 v -170 l 30,-60 30,-30 60,-30 h 110 l 60,30"
       id="path21568"
       inkscape:connector-curvature="0" />
    <path
       d="m 20390,24330 h 460"
       id="path21570"
       inkscape:connector-curvature="0" />
    <path
       d="m 20990,24270 v -400"
       id="path21572"
       inkscape:connector-curvature="0" />
    <path
       d="m 20990,23670 -30,30 30,30 30,-30 -30,-30 v 60"
       id="path21574"
       inkscape:connector-curvature="0" />
  </g>
  <g
     style="fill:#840000;fill-opacity:0;stroke:#840000;stroke-width:100;stroke-linecap:round;stroke-linejoin:round;stroke-opacity:1"
     id="g21580"
     transform="translate(-19020.001,-10410)">
    <polyline
       fill="none;"
       points="21500,24000 21200,23460 19620,23460 19320,24000 19620,24540 21200,24540 21500,24000 "
       id="polyline21578" />
  </g>
  <g
     style="fill:#840000;fill-opacity:0;stroke:#840000;stroke-width:60;stroke-linecap:round;stroke-linejoin:round;stroke-opacity:1"
     id="g21582"
     transform="translate(-19020.001,-10410)" />
  <g
     style="fill:#008400;fill-opacity:0;stroke:#008400;stroke-width:60;stroke-linecap:round;stroke-linejoin:round;stroke-opacity:1"
     id="g21586"
     transform="translate(-19020.001,-10410)">
    <path
       d="M 21500,37500 H 45500"
       id="path21584"
       inkscape:connector-curvature="0" />
  </g>
  <g
     style="fill:#840000;fill-opacity:0;stroke:#840000;stroke-width:60;stroke-linecap:round;stroke-linejoin:round;stroke-opacity:1"
     id="g21598"
     transform="translate(-19020.001,-10410)">
    <path
       d="m 19800,10960 h -200"
       id="path21588"
       inkscape:connector-curvature="0" />
    <path
       d="m 19600,11270 v -600 h 290"
       id="path21590"
       inkscape:connector-curvature="0" />
    <path
       d="m 20060,10870 110,400 110,-280 120,280 110,-400"
       id="path21592"
       inkscape:connector-curvature="0" />
    <path
       d="m 21000,11270 v -600"
       id="path21594"
       inkscape:connector-curvature="0" />
    <path
       d="m 21000,11240 -60,30 h -110 l -60,-30 -30,-30 -30,-50 v -170 l 30,-60 30,-30 60,-30 h 110 l 60,30"
       id="path21596"
       inkscape:connector-curvature="0" />
  </g>
  <g
     style="fill:#840000;fill-opacity:0;stroke:#840000;stroke-width:100;stroke-linecap:round;stroke-linejoin:round;stroke-opacity:1"
     id="g21602"
     transform="translate(-19020.001,-10410)">
    <polyline
       fill="none;"
       points="21500,11000 21200,10460 19230,10460 19230,11000 19230,11540 21200,11540 21500,11000 "
       id="polyline21600" />
  </g>
  <g
     style="fill:#840000;fill-opacity:0;stroke:#840000;stroke-width:60;stroke-linecap:round;stroke-linejoin:round;stroke-opacity:1"
     id="g21612"
     transform="translate(-19020.001,-10410)">
    <path
       d="m 19710,12960 90,30 30,20 30,60 v 90 l -30,50 -30,30 -60,30 h -230 v -600 h 200 l 60,30 30,30 30,60 v 50 l -30,60 -30,30 -60,30 h -200"
       id="path21604"
       inkscape:connector-curvature="0" />
    <path
       d="m 20060,12870 110,400 110,-280 120,280 110,-400"
       id="path21606"
       inkscape:connector-curvature="0" />
    <path
       d="m 21000,13270 v -600"
       id="path21608"
       inkscape:connector-curvature="0" />
    <path
       d="m 21000,13240 -60,30 h -110 l -60,-30 -30,-30 -30,-50 v -170 l 30,-60 30,-30 60,-30 h 110 l 60,30"
       id="path21610"
       inkscape:connector-curvature="0" />
  </g>
  <g
     style="fill:#840000;fill-opacity:0;stroke:#840000;stroke-width:100;stroke-linecap:round;stroke-linejoin:round;stroke-opacity:1"
     id="g21616"
     transform="translate(-19020.001,-10410)">
    <polyline
       fill="none;"
       points="21500,13000 21200,12460 19140,12460 19140,13000 19140,13540 21200,13540 21500,13000 "
       id="polyline21614" />
  </g>
  <g
     style="fill:#840000;fill-opacity:0;stroke:#840000;stroke-width:60;stroke-linecap:round;stroke-linejoin:round;stroke-opacity:1"
     id="g21624"
     transform="translate(-19020.001,-10410)">
    <path
       d="m 20740,31710 -30,30 -90,30 h -60 l -80,-30 -60,-50 -30,-60 -30,-120 v -80 l 30,-120 30,-50 60,-60 80,-30 h 60 l 90,30 30,30"
       id="path21618"
       inkscape:connector-curvature="0" />
    <path
       d="m 20990,31770 v -400"
       id="path21620"
       inkscape:connector-curvature="0" />
    <path
       d="m 20990,31170 -30,30 30,30 30,-30 -30,-30 v 60"
       id="path21622"
       inkscape:connector-curvature="0" />
  </g>
  <g
     style="fill:#840000;fill-opacity:0;stroke:#840000;stroke-width:100;stroke-linecap:round;stroke-linejoin:round;stroke-opacity:1"
     id="g21628"
     transform="translate(-19020.001,-10410)">
    <polyline
       fill="none;"
       points="21500,31500 21200,30960 20020,30960 20020,31500 20020,32040 21200,32040 21500,31500 "
       id="polyline21626" />
  </g>
  <g
     style="fill:#840000;fill-opacity:0;stroke:#840000;stroke-width:60;stroke-linecap:round;stroke-linejoin:round;stroke-opacity:1"
     id="g21634"
     transform="translate(-19020.001,-10410)">
    <path
       d="m 20520,33710 -30,30 -90,30 h -60 l -80,-30 -60,-50 -30,-60 -30,-120 v -80 l 30,-120 30,-50 60,-60 80,-30 h 60 l 90,30 30,30"
       id="path21630"
       inkscape:connector-curvature="0" />
    <path
       d="m 21030,33740 -60,30 h -110 l -60,-30 -30,-30 -30,-50 v -170 l 30,-60 30,-30 60,-30 h 110 l 60,30"
       id="path21632"
       inkscape:connector-curvature="0" />
  </g>
  <g
     style="fill:#840000;fill-opacity:0;stroke:#840000;stroke-width:100;stroke-linecap:round;stroke-linejoin:round;stroke-opacity:1"
     id="g21638"
     transform="translate(-19020.001,-10410)">
    <polyline
       fill="none;"
       points="21500,33500 21200,32960 19800,32960 19800,33500 19800,34040 21200,34040 21500,33500 "
       id="polyline21636" />
  </g>
  <g
     style="fill:#840000;fill-opacity:0;stroke:#840000;stroke-width:60;stroke-linecap:round;stroke-linejoin:round;stroke-opacity:1"
     id="g21644"
     transform="translate(-19020.001,-10410)">
    <path
       d="m 20690,35710 -30,30 -90,30 h -60 l -80,-30 -60,-50 -30,-60 -30,-120 v -80 l 30,-120 30,-50 60,-60 80,-30 h 60 l 90,30 30,30"
       id="path21640"
       inkscape:connector-curvature="0" />
    <path
       d="m 21030,35770 -60,-30 -30,-30 -30,-50 v -170 l 30,-60 30,-30 60,-30 h 80 l 60,30 30,30 30,60 v 170 l -30,50 -30,30 -60,30 h -80"
       id="path21642"
       inkscape:connector-curvature="0" />
  </g>
  <g
     style="fill:#840000;fill-opacity:0;stroke:#840000;stroke-width:100;stroke-linecap:round;stroke-linejoin:round;stroke-opacity:1"
     id="g21648"
     transform="translate(-19020.001,-10410)">
    <polyline
       fill="none;"
       points="21500,35500 21500,34960 20070,34960 19770,35500 20070,36040 21500,36040 21500,35500 "
       id="polyline21646" />
  </g>
  <g
     style="fill:#840000;fill-opacity:0;stroke:#840000;stroke-width:0;stroke-linecap:round;stroke-linejoin:round;stroke-opacity:1"
     id="g21650"
     transform="translate(-19020.001,-10410)" />
  <g
     style="fill:#840000;fill-opacity:0;stroke:#840000;stroke-width:60;stroke-linecap:round;stroke-linejoin:round;stroke-opacity:1"
     id="g21658"
     transform="translate(-19020.001,-10410)">
    <polyline
       fill="none;"
       points="24500,32000 24500,35000 27500,33500 24500,32000 "
       id="polyline21652" />
    <path
       d="M 24500,33500 H 22500"
       id="path21654"
       inkscape:connector-curvature="0" />
    <path
       d="m 27500,33500 h 2000"
       id="path21656"
       inkscape:connector-curvature="0" />
  </g>
  <g
     style="fill:#840000;fill-opacity:0;stroke:#840000;stroke-width:0;stroke-linecap:round;stroke-linejoin:round;stroke-opacity:1"
     id="g21660"
     transform="translate(-19020.001,-10410)" />
  <g
     style="fill:#840000;fill-opacity:0;stroke:#840000;stroke-width:60;stroke-linecap:round;stroke-linejoin:round;stroke-opacity:1"
     id="g21670"
     transform="translate(-19020.001,-10410)">
    <polyline
       fill="none;"
       points="38000,25500 38000,22500 41000,24000 38000,25500 "
       id="polyline21662" />
    <path
       d="M 38000,24000 H 36000"
       id="path21664"
       inkscape:connector-curvature="0" />
    <path
       d="M 39000,23000 V 21000"
       id="path21666"
       inkscape:connector-curvature="0" />
    <path
       d="m 41000,24000 h 2000"
       id="path21668"
       inkscape:connector-curvature="0" />
  </g>
  <g
     style="fill:#008400;fill-opacity:0;stroke:#008400;stroke-width:60;stroke-linecap:round;stroke-linejoin:round;stroke-opacity:1"
     id="g21686"
     transform="translate(-19020.001,-10410)">
    <path
       d="m 21500,31500 h 6500"
       id="path21672"
       inkscape:connector-curvature="0" />
    <path
       d="m 30000,33500 h -500"
       id="path21674"
       inkscape:connector-curvature="0" />
    <path
       d="M 32000,35500 H 21500"
       id="path21676"
       inkscape:connector-curvature="0" />
    <path
       d="m 21500,33500 h 1000"
       id="path21678"
       inkscape:connector-curvature="0" />
    <path
       d="M 28000,31500 V 30500"
       id="path21680"
       inkscape:connector-curvature="0" />
    <path
       d="M 30000,33500 V 30500"
       id="path21682"
       inkscape:connector-curvature="0" />
    <path
       d="M 32000,35500 V 30500"
       id="path21684"
       inkscape:connector-curvature="0" />
  </g>
  <g
     style="fill:#840000;fill-opacity:0;stroke:#840000;stroke-width:60;stroke-linecap:round;stroke-linejoin:round;stroke-opacity:1"
     id="g21702"
     transform="translate(-19020.001,-10410)">
    <path
       d="m 19620,15270 v -600"
       id="path21688"
       inkscape:connector-curvature="0" />
    <path
       d="m 19910,15270 v -600"
       id="path21690"
       inkscape:connector-curvature="0" />
    <path
       d="m 20170,15270 v -310 l -30,-60 -60,-30 h -80 l -60,30 -30,30"
       id="path21692"
       inkscape:connector-curvature="0" />
    <path
       d="m 20450,15270 v -400"
       id="path21694"
       inkscape:connector-curvature="0" />
    <path
       d="m 20450,14670 -30,30 30,30 30,-30 -30,-30 v 60"
       id="path21696"
       inkscape:connector-curvature="0" />
    <path
       d="m 20740,15270 v -600"
       id="path21698"
       inkscape:connector-curvature="0" />
    <path
       d="m 20740,14900 60,-30 h 110 l 60,30 30,30 30,60 v 170 l -30,50 -30,30 -60,30 h -110 l -60,-30"
       id="path21700"
       inkscape:connector-curvature="0" />
  </g>
  <g
     style="fill:#840000;fill-opacity:0;stroke:#840000;stroke-width:100;stroke-linecap:round;stroke-linejoin:round;stroke-opacity:1"
     id="g21706"
     transform="translate(-19020.001,-10410)">
    <polyline
       fill="none;"
       points="21500,15000 21200,14460 19250,14460 19250,15000 19250,15540 21200,15540 21500,15000 "
       id="polyline21704" />
  </g>
  <g
     style="fill:#840000;fill-opacity:0;stroke:#840000;stroke-width:0;stroke-linecap:round;stroke-linejoin:round;stroke-opacity:1"
     id="g21708"
     transform="translate(-19020.001,-10410)" />
  <g
     style="fill:#840000;fill-opacity:0;stroke:#840000;stroke-width:60;stroke-linecap:round;stroke-linejoin:round;stroke-opacity:1"
     id="g21766"
     transform="translate(-19020.001,-10410)">
    <path
       d="m 27360,24130 h 290"
       id="path21710"
       inkscape:connector-curvature="0" />
    <path
       d="m 27310,24300 200,-600 200,600"
       id="path21712"
       inkscape:connector-curvature="0" />
    <path
       d="m 29940,27740 -30,30 -90,30 h -60 l -80,-30 -60,-50 -30,-60 -30,-120 v -80 l 30,-120 30,-50 60,-60 80,-30 h 60 l 90,30 30,30"
       id="path21714"
       inkscape:connector-curvature="0" />
    <path
       d="m 30450,27770 -60,30 h -110 l -60,-30 -30,-30 -30,-50 v -170 l 30,-60 30,-30 60,-30 h 110 l 60,30"
       id="path21716"
       inkscape:connector-curvature="0" />
    <path
       d="m 28050,27740 -30,30 -90,30 h -60 l -80,-30 -60,-50 -30,-60 -30,-120 v -80 l 30,-120 30,-50 60,-60 80,-30 h 60 l 90,30 30,30"
       id="path21718"
       inkscape:connector-curvature="0" />
    <path
       d="m 28300,27800 v -400"
       id="path21720"
       inkscape:connector-curvature="0" />
    <path
       d="m 28300,27200 -30,30 30,30 30,-30 -30,-30 v 60"
       id="path21722"
       inkscape:connector-curvature="0" />
    <path
       d="m 31920,27740 -30,30 -90,30 h -60 l -80,-30 -60,-50 -30,-60 -30,-120 v -80 l 30,-120 30,-50 60,-60 80,-30 h 60 l 90,30 30,30"
       id="path21724"
       inkscape:connector-curvature="0" />
    <path
       d="m 32260,27800 -60,-30 -30,-30 -30,-50 v -170 l 30,-60 30,-30 60,-30 h 80 l 60,30 30,30 30,60 v 170 l -30,50 -30,30 -60,30 h -80"
       id="path21726"
       inkscape:connector-curvature="0" />
    <path
       d="m 32730,24360 -50,-30 -60,-60 -90,-80 -50,-30 h -60"
       id="path21728"
       inkscape:connector-curvature="0" />
    <path
       d="m 32450,24300 -60,-30 -60,-50 -30,-120 v -200 l 30,-110 60,-60 60,-30 h 110 l 60,30 60,60 20,110 v 200 l -20,120 -60,50 -60,30 h -110"
       id="path21730"
       inkscape:connector-curvature="0" />
    <rect
       x="27000"
       y="20500"
       width="6000"
       height="8000"
       rx="0"
       id="rect21732" />
    <rect
       x="28500"
       y="21500"
       width="3000"
       height="5000"
       rx="0"
       id="rect21734" />
    <polyline
       fill="none;"
       points="28500,26000 31500,26000 "
       id="polyline21736" />
    <polyline
       fill="none;"
       points="28500,25000 31500,25000 "
       id="polyline21738" />
    <polyline
       fill="none;"
       points="28500,24000 31500,24000 "
       id="polyline21740" />
    <polyline
       fill="none;"
       points="28500,23000 31500,23000 "
       id="polyline21742" />
    <polyline
       fill="none;"
       points="28500,22000 31500,22000 "
       id="polyline21744" />
    <polyline
       fill="none;"
       points="31500,25500 28500,25500 "
       id="polyline21746" />
    <polyline
       fill="none;"
       points="31500,24500 28500,24500 "
       id="polyline21748" />
    <polyline
       fill="none;"
       points="31500,23500 28500,23500 "
       id="polyline21750" />
    <polyline
       fill="none;"
       points="31500,22500 28500,22500 "
       id="polyline21752" />
    <path
       d="M 27000,24000 H 25000"
       id="path21754"
       inkscape:connector-curvature="0" />
    <path
       d="m 28000,28500 v 2000"
       id="path21756"
       inkscape:connector-curvature="0" />
    <path
       d="m 30000,28500 v 2000"
       id="path21758"
       inkscape:connector-curvature="0" />
    <path
       d="m 30250,28500 -250,-500 -250,500"
       id="path21760"
       inkscape:connector-curvature="0" />
    <path
       d="m 32000,28500 v 2000"
       id="path21762"
       inkscape:connector-curvature="0" />
    <path
       d="m 33000,24000 h 2000"
       id="path21764"
       inkscape:connector-curvature="0" />
  </g>
  <g
     style="fill:#008484;fill-opacity:0;stroke:#008484;stroke-width:60;stroke-linecap:round;stroke-linejoin:round;stroke-opacity:1"
     id="g21796"
     transform="translate(-19020.001,-10410)">
    <path
       d="m 27080,20310 v -400"
       id="path21768"
       inkscape:connector-curvature="0" />
    <path
       d="m 27080,20030 30,-60 30,-30 60,-30 h 50"
       id="path21770"
       inkscape:connector-curvature="0" />
    <path
       d="m 27680,20280 -60,30 h -110 l -60,-30 -30,-50 v -230 l 30,-60 60,-30 h 110 l 60,30 30,60 v 50 l -290,60"
       id="path21772"
       inkscape:connector-curvature="0" />
    <path
       d="m 28220,19910 v 490 l -30,50 -30,30 -50,30 h -90 l -60,-30"
       id="path21774"
       inkscape:connector-curvature="0" />
    <path
       d="m 28220,20280 -60,30 h -110 l -60,-30 -30,-30 -30,-50 v -170 l 30,-60 30,-30 60,-30 h 110 l 60,30"
       id="path21776"
       inkscape:connector-curvature="0" />
    <path
       d="m 28760,20280 -60,30 h -110 l -60,-30 -30,-30 -30,-50 v -170 l 30,-60 30,-30 60,-30 h 110 l 60,30"
       id="path21778"
       inkscape:connector-curvature="0" />
    <path
       d="m 28930,19910 h 230"
       id="path21780"
       inkscape:connector-curvature="0" />
    <path
       d="m 29010,20310 v -510 l 30,-60 60,-30 h 60"
       id="path21782"
       inkscape:connector-curvature="0" />
    <path
       d="m 29210,20370 h 460"
       id="path21784"
       inkscape:connector-curvature="0" />
    <path
       d="m 30070,20310 v -310 l -30,-60 -60,-30 h -110 l -60,30"
       id="path21786"
       inkscape:connector-curvature="0" />
    <path
       d="m 30070,20280 -60,30 h -140 l -60,-30 -30,-50 v -60 l 30,-60 60,-30 h 140 l 60,-30"
       id="path21788"
       inkscape:connector-curvature="0" />
    <path
       d="m 30610,20280 -60,30 h -110 l -60,-30 -30,-30 -30,-50 v -170 l 30,-60 30,-30 60,-30 h 110 l 60,30"
       id="path21790"
       inkscape:connector-curvature="0" />
    <path
       d="m 30780,19910 h 230"
       id="path21792"
       inkscape:connector-curvature="0" />
    <path
       d="m 30860,19710 v 520 l 30,50 60,30 h 60"
       id="path21794"
       inkscape:connector-curvature="0" />
  </g>
  <g
     style="fill:#008484;fill-opacity:0;stroke:#008484;stroke-width:0;stroke-linecap:round;stroke-linejoin:round;stroke-opacity:1"
     id="g21798"
     transform="translate(-19020.001,-10410)" />
  <g
     style="fill:#008400;fill-opacity:0;stroke:#008400;stroke-width:0;stroke-linecap:round;stroke-linejoin:round;stroke-opacity:1"
     id="g21800"
     transform="translate(-19020.001,-10410)" />
  <g
     style="fill:#008400;fill-opacity:1;stroke:#008400;stroke-width:100;stroke-linecap:round;stroke-linejoin:round;stroke-opacity:1"
     id="g21804"
     transform="translate(-19020.001,-10410)">
    <circle
       cx="35500"
       cy="24000"
       r="200"
       id="circle21802" />
  </g>
  <g
     style="fill:#008400;fill-opacity:1;stroke:#008400;stroke-width:60;stroke-linecap:round;stroke-linejoin:round;stroke-opacity:1"
     id="g21806"
     transform="translate(-19020.001,-10410)" />
  <g
     style="fill:#840000;fill-opacity:0;stroke:#840000;stroke-width:60;stroke-linecap:round;stroke-linejoin:round;stroke-opacity:1"
     id="g21818"
     transform="translate(-19020.001,-10410)">
    <path
       d="m 20000,17770 v -600"
       id="path21808"
       inkscape:connector-curvature="0" />
    <path
       d="m 20000,17740 -60,30 h -110 l -60,-30 -30,-30 -30,-50 v -170 l 30,-60 30,-30 60,-30 h 110 l 60,30"
       id="path21810"
       inkscape:connector-curvature="0" />
    <path
       d="m 20140,17830 h 460"
       id="path21812"
       inkscape:connector-curvature="0" />
    <path
       d="m 20740,17770 v -600"
       id="path21814"
       inkscape:connector-curvature="0" />
    <path
       d="m 20740,17400 60,-30 h 110 l 60,30 30,30 30,60 v 170 l -30,50 -30,30 -60,30 h -110 l -60,-30"
       id="path21816"
       inkscape:connector-curvature="0" />
  </g>
  <g
     style="fill:#840000;fill-opacity:0;stroke:#840000;stroke-width:100;stroke-linecap:round;stroke-linejoin:round;stroke-opacity:1"
     id="g21822"
     transform="translate(-19020.001,-10410)">
    <polyline
       fill="none;"
       points="21500,17500 21200,16960 19370,16960 19070,17500 19370,18040 21200,18040 21500,17500 "
       id="polyline21820" />
  </g>
  <g
     style="fill:#840000;fill-opacity:0;stroke:#840000;stroke-width:60;stroke-linecap:round;stroke-linejoin:round;stroke-opacity:1"
     id="g21824"
     transform="translate(-19020.001,-10410)" />
  <g
     style="fill:#008400;fill-opacity:0;stroke:#008400;stroke-width:60;stroke-linecap:round;stroke-linejoin:round;stroke-opacity:1"
     id="g21828"
     transform="translate(-19020.001,-10410)">
    <path
       d="m 21500,17500 h 6500"
       id="path21826"
       inkscape:connector-curvature="0" />
  </g>
  <g
     style="fill:#008400;fill-opacity:0;stroke:#008400;stroke-width:0;stroke-linecap:round;stroke-linejoin:round;stroke-opacity:1"
     id="g21830"
     transform="translate(-19020.001,-10410)" />
  <g
     style="fill:#840000;fill-opacity:0;stroke:#840000;stroke-width:0;stroke-linecap:round;stroke-linejoin:round;stroke-opacity:1"
     id="g21832"
     transform="translate(-19020.001,-10410)" />
  <g
     style="fill:#840000;fill-opacity:0;stroke:#840000;stroke-width:60;stroke-linecap:round;stroke-linejoin:round;stroke-opacity:1"
     id="g21842"
     transform="translate(-19020.001,-10410)">
    <polyline
       fill="none;"
       points="33000,19000 33000,16000 30000,17500 33000,19000 "
       id="polyline21834" />
    <path
       d="m 33000,17500 h 2000"
       id="path21836"
       inkscape:connector-curvature="0" />
    <path
       d="M 32000,16500 V 14500"
       id="path21838"
       inkscape:connector-curvature="0" />
    <path
       d="M 30000,17500 H 28000"
       id="path21840"
       inkscape:connector-curvature="0" />
  </g>
  <g
     style="fill:#008400;fill-opacity:0;stroke:#008400;stroke-width:60;stroke-linecap:round;stroke-linejoin:round;stroke-opacity:1"
     id="g21858"
     transform="translate(-19020.001,-10410)">
    <path
       d="m 35000,17500 h 500"
       id="path21844"
       inkscape:connector-curvature="0" />
    <path
       d="M 21500,13000 H 32000"
       id="path21846"
       inkscape:connector-curvature="0" />
    <path
       d="m 32000,13000 v 1500"
       id="path21848"
       inkscape:connector-curvature="0" />
    <path
       d="M 21500,11000 H 39000"
       id="path21850"
       inkscape:connector-curvature="0" />
    <path
       d="M 39000,11000 V 21000"
       id="path21852"
       inkscape:connector-curvature="0" />
    <path
       d="m 35500,17500 v 6500"
       id="path21854"
       inkscape:connector-curvature="0" />
    <path
       d="m 21500,15000 h 500"
       id="path21856"
       inkscape:connector-curvature="0" />
  </g>
  <g
     style="fill:#000084;fill-opacity:0;stroke:#000084;stroke-width:60;stroke-linecap:round;stroke-linejoin:round;stroke-opacity:1"
     id="g21864"
     transform="translate(-19020.001,-10410)">
    <path
       d="m 21760,14760 480,480"
       id="path21860"
       inkscape:connector-curvature="0" />
    <path
       d="m 22240,14760 -480,480"
       id="path21862"
       inkscape:connector-curvature="0" />
  </g>
</svg>
